<?xml version="1.0" standalone="no"?>
<!DOCTYPE svg PUBLIC "-//W3C//DTD SVG 20010904//EN"
 "http://www.w3.org/TR/2001/REC-SVG-20010904/DTD/svg10.dtd">
<svg version="1.0" xmlns="http://www.w3.org/2000/svg"
 width="1247.000000pt" height="1222.000000pt" viewBox="0 0 1247.000000 1222.000000"
 preserveAspectRatio="xMidYMid meet">

<g transform="translate(0.000000,1222.000000) scale(0.100000,-0.100000)"
fill="#000000" stroke="none">
<path d="M5805 8087 c-44 -44 -48 -91 -9 -136 44 -53 134 -48 164 9 10 18 21
20 146 20 l135 0 25 -30 c49 -58 131 -48 168 21 22 41 17 75 -18 116 -20 23
-32 28 -71 28 -40 0 -51 -5 -76 -32 l-29 -33 -132 0 -132 0 -25 31 c-19 22
-37 32 -68 36 -39 5 -46 2 -78 -30z m93 -68 c4 -30 -22 -46 -44 -28 -17 14
-18 31 -2 47 19 19 43 9 46 -19z m476 9 c8 -14 7 -21 -6 -34 -30 -30 -75 9
-48 42 16 18 39 15 54 -8z"/>
<path d="M5959 7881 c-41 -42 -41 -97 2 -145 l31 -36 -4 -593 -3 -594 -37 -35
c-32 -30 -38 -42 -38 -77 0 -60 41 -101 100 -101 33 0 48 6 71 29 l29 29 0
-40 c0 -33 6 -47 33 -71 l32 -30 -32 -33 c-46 -45 -46 -93 1 -140 48 -48 96
-48 142 1 32 34 34 35 115 35 l82 0 -6 -320 -7 -320 94 0 c51 0 107 -3 124 -6
l30 -6 -5 -327 -5 -326 -29 -29 c-57 -56 -29 -158 47 -172 69 -13 124 34 124
107 0 22 -10 41 -36 67 l-35 35 3 361 3 361 -117 3 -118 3 0 319 0 320 -119 0
c-115 0 -119 1 -135 24 -8 14 -25 27 -36 31 -19 6 -18 9 15 39 29 28 35 40 35
75 0 34 -6 49 -30 73 l-31 30 1 641 0 641 29 29 c38 36 47 76 27 116 -20 38
-53 61 -89 61 -33 0 -87 -26 -87 -41 0 -6 -14 1 -31 15 -44 37 -101 36 -140
-3z m96 -71 c0 -18 -6 -26 -23 -28 -24 -4 -38 18 -28 44 3 9 15 14 28 12 17
-2 23 -10 23 -28z m183 1 c4 -29 -15 -43 -40 -30 -18 10 -24 39 -11 53 15 15
48 1 51 -23z m-84 -85 l28 -24 -4 -636 -3 -636 -33 -32 -32 -33 0 37 c0 25 -8
46 -26 67 l-25 30 1 603 1 603 27 22 c33 27 31 27 66 -1z m-119 -1326 c0 -18
-6 -26 -23 -28 -24 -4 -38 18 -28 44 3 9 15 14 28 12 17 -2 23 -10 23 -28z
m200 -80 c0 -18 -6 -26 -23 -28 -24 -4 -38 18 -28 44 3 9 15 14 28 12 17 -2
23 -10 23 -28z m0 -205 c0 -23 -5 -30 -19 -30 -28 0 -43 29 -26 50 21 25 45
14 45 -20z m535 -1420 c19 -23 8 -50 -20 -50 -19 0 -26 6 -28 24 -5 35 26 53
48 26z"/>
<path d="M5945 6267 c-28 -13 -45 -36 -59 -80 -7 -22 14 -77 37 -96 11 -9 17
-29 17 -57 l0 -44 -265 0 -265 0 0 -121 0 -121 -137 3 -138 4 -3 -282 -2 -283
-95 0 -95 0 0 -199 0 -199 -35 -35 c-52 -52 -46 -125 15 -160 60 -36 128 -10
150 57 13 41 -6 98 -39 116 -20 10 -21 19 -21 180 l0 170 95 0 95 0 0 280 0
280 140 0 140 0 0 120 0 120 230 0 230 0 0 -230 0 -230 -204 0 -203 0 -8 -337
-7 -337 -28 -26 c-51 -47 -52 -105 -4 -153 78 -78 210 24 159 122 -9 18 -23
35 -31 38 -12 4 -14 54 -14 314 l0 309 203 0 204 0 6 98 c4 53 7 208 7 344 0
238 1 247 20 253 25 8 50 55 50 94 0 39 -45 89 -85 96 -16 3 -43 -1 -60 -8z
m63 -69 c27 -27 -5 -73 -38 -53 -14 9 -12 52 3 58 19 8 22 8 35 -5z m-1009
-1497 c13 -24 -9 -57 -33 -48 -23 9 -31 34 -16 52 17 20 37 19 49 -4z m586 -9
c8 -20 -19 -47 -39 -39 -26 10 -32 38 -12 53 21 15 42 9 51 -14z"/>
<path d="M6242 5805 c-17 -14 -33 -38 -37 -54 -8 -36 16 -95 44 -111 20 -10
21 -17 21 -270 l0 -260 -175 0 -175 0 0 -174 c0 -173 0 -174 -24 -189 -36 -24
-51 -77 -32 -120 30 -72 120 -86 170 -26 39 45 35 92 -9 136 l-36 36 3 131 3
131 173 3 172 2 0 289 0 289 35 35 c48 48 49 95 1 143 -43 43 -90 46 -134 9z
m92 -67 c8 -14 7 -21 -5 -33 -28 -29 -73 11 -48 42 15 17 38 13 53 -9z m-350
-1060 c13 -22 -14 -54 -38 -45 -16 6 -22 48 -9 61 11 11 35 3 47 -16z"/>
</g>
</svg>
